<svg xmlns="http://www.w3.org/2000/svg" xmlns:xlink="http://www.w3.org/1999/xlink" width="375" viewBox="0 0 375 60" height="60" version="1.0"><defs><g id="a"><path d="M 2.875 0 L 2.875 -4.515625 L 16.234375 -21.046875 L 16.234375 -21.234375 L 3.34375 -21.234375 L 3.34375 -27.265625 L 25.34375 -27.265625 L 25.34375 -22.359375 L 12.796875 -6.234375 L 12.796875 -6.03125 L 25.796875 -6.03125 L 25.796875 0 Z M 2.875 0"/></g><g id="b"><path d="M 15.453125 0.53125 C 12.648438 0.53125 10.238281 -0.0351562 8.21875 -1.171875 C 6.195312 -2.316406 4.640625 -3.941406 3.546875 -6.046875 C 2.460938 -8.148438 1.921875 -10.640625 1.921875 -13.515625 C 1.921875 -16.316406 2.460938 -18.773438 3.546875 -20.890625 C 4.640625 -23.015625 6.175781 -24.664062 8.15625 -25.84375 C 10.144531 -27.03125 12.472656 -27.625 15.140625 -27.625 C 17.546875 -27.625 19.71875 -27.113281 21.65625 -26.09375 C 23.59375 -25.082031 25.128906 -23.546875 26.265625 -21.484375 C 27.398438 -19.429688 27.96875 -16.863281 27.96875 -13.78125 L 27.96875 -11.703125 L 9.390625 -11.703125 L 9.390625 -11.6875 C 9.390625 -9.644531 9.945312 -8.035156 11.0625 -6.859375 C 12.175781 -5.691406 13.679688 -5.109375 15.578125 -5.109375 C 16.835938 -5.109375 17.925781 -5.375 18.84375 -5.90625 C 19.769531 -6.445312 20.425781 -7.238281 20.8125 -8.28125 L 27.8125 -7.8125 C 27.269531 -5.28125 25.914062 -3.253906 23.75 -1.734375 C 21.59375 -0.222656 18.828125 0.53125 15.453125 0.53125 Z M 9.390625 -16.390625 L 20.84375 -16.390625 C 20.832031 -18.015625 20.3125 -19.351562 19.28125 -20.40625 C 18.25 -21.457031 16.910156 -21.984375 15.265625 -21.984375 C 13.585938 -21.984375 12.207031 -21.4375 11.125 -20.34375 C 10.050781 -19.257812 9.472656 -17.941406 9.390625 -16.390625 Z M 9.390625 -16.390625"/></g><g id="c"><path d="M 10.578125 -15.765625 L 10.578125 0 L 3.015625 0 L 3.015625 -27.265625 L 10.234375 -27.265625 L 10.234375 -22.46875 L 10.546875 -22.46875 C 11.160156 -24.050781 12.175781 -25.304688 13.59375 -26.234375 C 15.007812 -27.160156 16.726562 -27.625 18.75 -27.625 C 21.59375 -27.625 23.867188 -26.707031 25.578125 -24.875 C 27.296875 -23.050781 28.15625 -20.546875 28.15625 -17.359375 L 28.15625 0 L 20.59375 0 L 20.59375 -16.015625 C 20.601562 -17.679688 20.175781 -18.984375 19.3125 -19.921875 C 18.445312 -20.867188 17.257812 -21.34375 15.75 -21.34375 C 14.21875 -21.34375 12.972656 -20.851562 12.015625 -19.875 C 11.066406 -18.894531 10.585938 -17.523438 10.578125 -15.765625 Z M 10.578125 -15.765625"/></g><g id="d"><path d="M 17.53125 -27.265625 L 17.53125 -21.59375 L 12.390625 -21.59375 L 12.390625 -8.375 C 12.390625 -7.332031 12.625 -6.628906 13.09375 -6.265625 C 13.570312 -5.898438 14.191406 -5.71875 14.953125 -5.71875 C 15.304688 -5.71875 15.660156 -5.75 16.015625 -5.8125 C 16.367188 -5.875 16.640625 -5.925781 16.828125 -5.96875 L 18.015625 -0.34375 C 17.640625 -0.21875 17.109375 -0.078125 16.421875 0.078125 C 15.734375 0.234375 14.898438 0.332031 13.921875 0.375 C 11.171875 0.488281 8.960938 -0.101562 7.296875 -1.40625 C 5.640625 -2.71875 4.816406 -4.710938 4.828125 -7.390625 L 4.828125 -21.59375 L 1.09375 -21.59375 L 1.09375 -27.265625 L 4.828125 -27.265625 L 4.828125 -33.8125 L 12.390625 -33.8125 L 12.390625 -27.265625 Z M 17.53125 -27.265625"/></g><g id="e"><path d="M 3.015625 0 L 3.015625 -27.265625 L 10.359375 -27.265625 L 10.359375 -22.515625 L 10.640625 -22.515625 C 11.128906 -24.203125 11.957031 -25.476562 13.125 -26.34375 C 14.300781 -27.21875 15.65625 -27.65625 17.1875 -27.65625 C 18.03125 -27.65625 18.820312 -27.566406 19.5625 -27.390625 L 19.5625 -20.6875 C 19.207031 -20.800781 18.71875 -20.894531 18.09375 -20.96875 C 17.46875 -21.050781 16.894531 -21.09375 16.375 -21.09375 C 14.707031 -21.09375 13.320312 -20.566406 12.21875 -19.515625 C 11.125 -18.472656 10.578125 -17.113281 10.578125 -15.4375 L 10.578125 0 Z M 3.015625 0"/></g><g id="f"><path d="M 10.796875 0.515625 C 8.191406 0.515625 6.03125 -0.160156 4.3125 -1.515625 C 2.59375 -2.878906 1.734375 -4.914062 1.734375 -7.625 C 1.734375 -9.65625 2.210938 -11.25 3.171875 -12.40625 C 4.128906 -13.570312 5.382812 -14.421875 6.9375 -14.953125 C 8.5 -15.492188 10.179688 -15.847656 11.984375 -16.015625 C 14.347656 -16.253906 16.039062 -16.503906 17.0625 -16.765625 C 18.082031 -17.023438 18.59375 -17.59375 18.59375 -18.46875 L 18.59375 -18.578125 C 18.59375 -19.703125 18.238281 -20.570312 17.53125 -21.1875 C 16.832031 -21.800781 15.835938 -22.109375 14.546875 -22.109375 C 13.179688 -22.109375 12.09375 -21.8125 11.28125 -21.21875 C 10.476562 -20.625 9.945312 -19.875 9.6875 -18.96875 L 2.703125 -19.53125 C 3.222656 -22.019531 4.515625 -23.988281 6.578125 -25.4375 C 8.640625 -26.894531 11.304688 -27.625 14.578125 -27.625 C 16.597656 -27.625 18.488281 -27.300781 20.25 -26.65625 C 22.019531 -26.019531 23.445312 -25.023438 24.53125 -23.671875 C 25.613281 -22.316406 26.15625 -20.554688 26.15625 -18.390625 L 26.15625 0 L 18.984375 0 L 18.984375 -3.78125 L 18.765625 -3.78125 C 18.109375 -2.507812 17.117188 -1.472656 15.796875 -0.671875 C 14.472656 0.117188 12.804688 0.515625 10.796875 0.515625 Z M 12.96875 -4.703125 C 14.625 -4.703125 15.984375 -5.179688 17.046875 -6.140625 C 18.109375 -7.109375 18.640625 -8.3125 18.640625 -9.75 L 18.640625 -12.640625 C 18.347656 -12.441406 17.890625 -12.265625 17.265625 -12.109375 C 16.640625 -11.953125 15.972656 -11.816406 15.265625 -11.703125 C 14.566406 -11.597656 13.941406 -11.503906 13.390625 -11.421875 C 12.066406 -11.234375 11 -10.859375 10.1875 -10.296875 C 9.375 -9.742188 8.96875 -8.929688 8.96875 -7.859375 C 8.96875 -6.816406 9.34375 -6.03125 10.09375 -5.5 C 10.84375 -4.96875 11.800781 -4.703125 12.96875 -4.703125 Z M 12.96875 -4.703125"/></g><g id="g"><path d="M 15.34375 0.53125 C 12.550781 0.53125 10.148438 -0.0625 8.140625 -1.25 C 6.128906 -2.4375 4.585938 -4.085938 3.515625 -6.203125 C 2.453125 -8.328125 1.921875 -10.769531 1.921875 -13.53125 C 1.921875 -16.320312 2.460938 -18.773438 3.546875 -20.890625 C 4.628906 -23.003906 6.171875 -24.65625 8.171875 -25.84375 C 10.171875 -27.03125 12.550781 -27.625 15.3125 -27.625 C 17.6875 -27.625 19.769531 -27.191406 21.5625 -26.328125 C 23.351562 -25.460938 24.765625 -24.25 25.796875 -22.6875 C 26.835938 -21.125 27.410156 -19.289062 27.515625 -17.1875 L 20.390625 -17.1875 C 20.179688 -18.550781 19.644531 -19.648438 18.78125 -20.484375 C 17.925781 -21.316406 16.8125 -21.734375 15.4375 -21.734375 C 13.675781 -21.734375 12.265625 -21.023438 11.203125 -19.609375 C 10.140625 -18.203125 9.609375 -16.210938 9.609375 -13.640625 C 9.609375 -11.035156 10.132812 -9.019531 11.1875 -7.59375 C 12.25 -6.164062 13.664062 -5.453125 15.4375 -5.453125 C 16.738281 -5.453125 17.832031 -5.84375 18.71875 -6.625 C 19.601562 -7.414062 20.160156 -8.539062 20.390625 -10 L 27.515625 -10 C 27.398438 -7.914062 26.835938 -6.078125 25.828125 -4.484375 C 24.816406 -2.898438 23.421875 -1.664062 21.640625 -0.78125 C 19.867188 0.09375 17.769531 0.53125 15.34375 0.53125 Z M 15.34375 0.53125"/></g><g id="h"><path d="M 3.015625 0 L 3.015625 -36.359375 L 10.578125 -36.359375 L 10.578125 -16.921875 L 10.984375 -16.921875 L 19.734375 -27.265625 L 28.40625 -27.265625 L 18.28125 -15.46875 L 28.921875 0 L 20.0625 0 L 12.625 -10.984375 L 10.578125 -8.671875 L 10.578125 0 Z M 3.015625 0"/></g></defs><g fill="#FFF"><use x="97.376" y="48.249" xmlns:xlink="http://www.w3.org/1999/xlink" xlink:href="#a" xlink:type="simple" xlink:actuate="onLoad" xlink:show="embed"/></g><g fill="#FFF"><use x="122.358" y="48.249" xmlns:xlink="http://www.w3.org/1999/xlink" xlink:href="#b" xlink:type="simple" xlink:actuate="onLoad" xlink:show="embed"/></g><g fill="#FFF"><use x="148.636" y="48.249" xmlns:xlink="http://www.w3.org/1999/xlink" xlink:href="#c" xlink:type="simple" xlink:actuate="onLoad" xlink:show="embed"/></g><g fill="#FFF"><use x="176.121" y="48.249" xmlns:xlink="http://www.w3.org/1999/xlink" xlink:href="#d" xlink:type="simple" xlink:actuate="onLoad" xlink:show="embed"/></g><g fill="#FFF"><use x="191.942" y="48.249" xmlns:xlink="http://www.w3.org/1999/xlink" xlink:href="#e" xlink:type="simple" xlink:actuate="onLoad" xlink:show="embed"/></g><g fill="#FFF"><use x="208.775" y="48.249" xmlns:xlink="http://www.w3.org/1999/xlink" xlink:href="#f" xlink:type="simple" xlink:actuate="onLoad" xlink:show="embed"/></g><g fill="#FFF"><use x="234.183" y="48.249" xmlns:xlink="http://www.w3.org/1999/xlink" xlink:href="#g" xlink:type="simple" xlink:actuate="onLoad" xlink:show="embed"/></g><g fill="#FFF"><use x="259.946" y="48.249" xmlns:xlink="http://www.w3.org/1999/xlink" xlink:href="#h" xlink:type="simple" xlink:actuate="onLoad" xlink:show="embed"/></g><g fill="#FFF"><use x="285.425" y="48.249" xmlns:xlink="http://www.w3.org/1999/xlink" xlink:href="#b" xlink:type="simple" xlink:actuate="onLoad" xlink:show="embed"/></g><g fill="#FFF"><use x="311.703" y="48.249" xmlns:xlink="http://www.w3.org/1999/xlink" xlink:href="#e" xlink:type="simple" xlink:actuate="onLoad" xlink:show="embed"/></g><path fill="#44D9E6" d="M 85.246094 12.136719 L 38.445312 12.136719 C 37.320312 12.136719 36.40625 11.234375 36.40625 10.125 L 36.40625 3.464844 C 36.40625 2.355469 37.320312 1.449219 38.445312 1.449219 L 85.246094 1.449219 C 86.367188 1.449219 87.28125 2.355469 87.28125 3.464844 L 87.28125 10.125 C 87.28125 11.234375 86.367188 12.136719 85.246094 12.136719 Z M 85.246094 12.136719"/><path fill="#44D9E6" d="M 85.347656 27.730469 L 45.679688 27.730469 C 44.554688 27.730469 43.640625 26.828125 43.640625 25.714844 L 43.640625 19.054688 C 43.640625 17.945312 44.554688 17.042969 45.679688 17.042969 L 85.347656 17.042969 C 86.472656 17.042969 87.390625 17.945312 87.390625 19.054688 L 87.390625 25.714844 C 87.390625 26.828125 86.472656 27.730469 85.347656 27.730469 Z M 85.347656 27.730469"/><path fill="#44D9E6" d="M 85.449219 43.324219 L 56.984375 43.324219 C 55.855469 43.324219 54.9375 42.417969 54.9375 41.308594 L 54.9375 34.648438 C 54.9375 33.539062 55.855469 32.632812 56.984375 32.632812 L 85.449219 32.632812 C 86.578125 32.632812 87.496094 33.539062 87.496094 34.648438 L 87.496094 41.308594 C 87.496094 42.417969 86.578125 43.324219 85.449219 43.324219 Z M 85.449219 43.324219"/><path fill="#44D9E6" d="M 85.132812 58.914062 L 63.738281 58.914062 C 62.621094 58.914062 61.714844 58.011719 61.714844 56.902344 L 61.714844 50.242188 C 61.714844 49.132812 62.621094 48.226562 63.738281 48.226562 L 85.132812 48.226562 C 86.246094 48.226562 87.152344 49.132812 87.152344 50.242188 L 87.152344 56.902344 C 87.152344 58.011719 86.246094 58.914062 85.132812 58.914062 Z M 85.132812 58.914062"/></svg>